<svg width="13" height="16" viewBox="0 0 13 16" fill="none" xmlns="http://www.w3.org/2000/svg">
<path d="M6.864 0.0460842C5.908 -0.192916 5.02 0.530084 4.956 1.46608C4.884 2.51708 4.726 3.48208 4.528 4.05608C4.403 4.41608 4.049 5.06908 3.488 5.69508C2.931 6.31808 2.206 6.87308 1.357 7.10508C0.685 7.28808 0 7.87008 0 8.72008V12.7211C0 13.5661 0.682 14.1851 1.448 14.2661C2.518 14.3801 3.012 14.6811 3.516 14.9891L3.564 15.0191C3.836 15.1841 4.142 15.3671 4.534 15.5031C4.931 15.6391 5.395 15.7201 6 15.7201H9.5C10.437 15.7201 11.099 15.2431 11.434 14.6561C11.5959 14.3791 11.6834 14.0649 11.688 13.7441C11.688 13.5921 11.665 13.4321 11.611 13.2801C11.812 13.0171 11.991 12.7021 12.099 12.3791C12.209 12.0491 12.271 11.6171 12.103 11.2301C12.172 11.1001 12.223 10.9611 12.262 10.8271C12.339 10.5571 12.375 10.2591 12.375 9.97008C12.375 9.68208 12.339 9.38508 12.262 9.11408C12.227 8.9895 12.1808 8.86834 12.124 8.75208C12.2991 8.50296 12.4118 8.21539 12.4525 7.91362C12.4932 7.61185 12.4608 7.30471 12.358 7.01808C12.152 6.42608 11.676 5.91808 11.158 5.74608C10.311 5.46408 9.355 5.47008 8.642 5.53508C8.49397 5.5484 8.34627 5.56507 8.199 5.58508C8.54591 4.09947 8.52462 2.5516 8.137 1.07608C8.06956 0.839673 7.9402 0.625569 7.76228 0.455914C7.58436 0.286258 7.36435 0.167211 7.125 0.111084L6.864 0.0460842ZM9.5 14.7211H6C5.49 14.7211 5.137 14.6521 4.86 14.5571C4.579 14.4601 4.354 14.3291 4.084 14.1641L4.044 14.1401C3.489 13.8011 2.846 13.4091 1.554 13.2721C1.221 13.2361 1 12.9821 1 12.7221V8.72008C1 8.46608 1.226 8.17708 1.62 8.07008C2.715 7.77008 3.597 7.07408 4.234 6.36208C4.869 5.65208 5.298 4.88708 5.472 4.38408C5.715 3.68408 5.879 2.61608 5.954 1.53408C5.979 1.17208 6.314 0.940084 6.621 1.01608L6.883 1.08208C7.043 1.12208 7.141 1.22508 7.171 1.33708C7.57939 2.89311 7.52903 4.53403 7.026 6.06208C6.99753 6.14707 6.99242 6.23815 7.01122 6.32579C7.03002 6.41342 7.07203 6.49439 7.13285 6.56023C7.19368 6.62606 7.27108 6.67433 7.35695 6.69999C7.44283 6.72565 7.53403 6.72776 7.621 6.70608L7.624 6.70508L7.638 6.70208L7.696 6.68808C8.03795 6.61547 8.38389 6.56304 8.732 6.53108C9.395 6.47108 10.189 6.47708 10.842 6.69508C11.017 6.75308 11.292 6.99508 11.412 7.34508C11.519 7.65308 11.499 8.01508 11.146 8.36708L10.793 8.72008L11.146 9.07408C11.189 9.11708 11.251 9.21508 11.3 9.38908C11.348 9.55608 11.375 9.75908 11.375 9.97008C11.375 10.1821 11.348 10.3841 11.3 10.5521C11.25 10.7261 11.189 10.8241 11.146 10.8671L10.793 11.2201L11.146 11.5741C11.193 11.6211 11.255 11.7511 11.151 12.0621C11.0426 12.3637 10.8704 12.6383 10.646 12.8671L10.293 13.2201L10.646 13.5741C10.652 13.5791 10.687 13.6241 10.687 13.7441C10.6826 13.8908 10.6409 14.0339 10.566 14.1601C10.401 14.4481 10.063 14.7211 9.5 14.7211Z" fill="black"/>
</svg>
